<svg id="Layer_1" data-name="Layer 1" xmlns="http://www.w3.org/2000/svg" viewBox="0 0 38.91 37"><defs><style>.cls-1{fill:none;stroke:#000;stroke-linecap:round;stroke-linejoin:round;stroke-width:2px;}</style></defs><title>ftp</title><path class="cls-1" d="M163.63,239H157V229c0-.8.13-1-0.66-1h-5.61c-0.8,0-1.73.21-1.73,1v10h-5.35a1.16,1.16,0,0,0-.87,2L152.33,251a1.57,1.57,0,0,0,2.24,0l10-9.76A1.34,1.34,0,0,0,163.63,239Z" transform="translate(-134 -227)"/><path class="cls-1" d="M171.91,260.53v-6.12S172.19,252,170,252H159.51s-3.25,4.41-6,4.37c0,0-1.84.63-6.17-4.37H136.9a1.33,1.33,0,0,0-1.9,1.31v7.29s0.23,2.39,1.81,2.39H170A2.67,2.67,0,0,0,171.91,260.53Zm-9.92-.78a1.36,1.36,0,1,1,1.36-1.36A1.36,1.36,0,0,1,162,259.75Zm5.66,0a1.36,1.36,0,1,1,1.36-1.36A1.36,1.36,0,0,1,167.64,259.75Z" transform="translate(-134 -227)"/></svg>