<svg id="Layer_1" data-name="Layer 1" xmlns="http://www.w3.org/2000/svg" viewBox="0 0 261.08 139"><defs><style>.cls-1,.cls-2,.cls-3,.cls-4{fill:none;stroke:#000;}.cls-1,.cls-2,.cls-3{stroke-miterlimit:10;}.cls-1,.cls-4{stroke-width:2px;}.cls-3{stroke-width:3px;}.cls-4{stroke-linecap:round;stroke-linejoin:round;}</style></defs><title>ftp</title><rect class="cls-1" x="12.8" y="1" width="18" height="32"/><circle class="cls-2" cx="5.78" cy="20.74" r="1.84"/><polygon class="cls-1" points="13.3 33.5 1.41 38.94 1.01 5.63 13.3 1.5 13.3 33.5"/><path class="cls-3" d="M386,160.5H370l-3.13-3H354.5V178a6.72,6.72,0,0,0,4.31,3.19,11.69,11.69,0,0,0,3.17.29l21.38,0.89c2.17-1.2,7.75-15.86,7.75-15.86H370l-6.33,14.41" transform="translate(-132.2 -146)"/><path class="cls-3" d="M372.5,225.68a6.18,6.18,0,0,0-6.18-6.18H304.68a6.18,6.18,0,0,0-6.18,6.18v51.65a6.18,6.18,0,0,0,6.18,6.18h61.65a6.18,6.18,0,0,0,6.18-6.18V225.68Zm-59,50.53a2.3,2.3,0,0,1-2.3,2.3h-5.4a2.3,2.3,0,0,1-2.3-2.3v-5.4a2.3,2.3,0,0,1,2.3-2.3h5.4a2.3,2.3,0,0,1,2.3,2.3v5.4Zm0-15a2.3,2.3,0,0,1-2.3,2.3h-5.4a2.3,2.3,0,0,1-2.3-2.3v-5.4a2.3,2.3,0,0,1,2.3-2.3h5.4a2.3,2.3,0,0,1,2.3,2.3v5.4Zm0-15a2.3,2.3,0,0,1-2.3,2.3h-5.4a2.3,2.3,0,0,1-2.3-2.3v-5.4a2.3,2.3,0,0,1,2.3-2.3h5.4a2.3,2.3,0,0,1,2.3,2.3v5.4Zm0-14a2.3,2.3,0,0,1-2.3,2.3h-5.4a2.3,2.3,0,0,1-2.3-2.3v-5.4a2.3,2.3,0,0,1,2.3-2.3h5.4a2.3,2.3,0,0,1,2.3,2.3v5.4Zm39,14.44a2.85,2.85,0,0,1-2.85,2.85H321.35a2.85,2.85,0,0,1-2.85-2.85V227.35a2.85,2.85,0,0,1,2.85-2.85h28.29a2.85,2.85,0,0,1,2.85,2.85v19.29Zm0,29a2.85,2.85,0,0,1-2.85,2.85H321.35a2.85,2.85,0,0,1-2.85-2.85V256.35a2.85,2.85,0,0,1,2.85-2.85h28.29a2.85,2.85,0,0,1,2.85,2.85v19.29Zm15,0.56a2.3,2.3,0,0,1-2.3,2.3h-5.4a2.3,2.3,0,0,1-2.3-2.3v-5.4a2.3,2.3,0,0,1,2.3-2.3h5.4a2.3,2.3,0,0,1,2.3,2.3v5.4Zm0-15a2.3,2.3,0,0,1-2.3,2.3h-5.4a2.3,2.3,0,0,1-2.3-2.3v-5.4a2.3,2.3,0,0,1,2.3-2.3h5.4a2.3,2.3,0,0,1,2.3,2.3v5.4Zm0-15a2.3,2.3,0,0,1-2.3,2.3h-5.4a2.3,2.3,0,0,1-2.3-2.3v-5.4a2.3,2.3,0,0,1,2.3-2.3h5.4a2.3,2.3,0,0,1,2.3,2.3v5.4Zm0-14a2.3,2.3,0,0,1-2.3,2.3h-5.4a2.3,2.3,0,0,1-2.3-2.3v-5.4a2.3,2.3,0,0,1,2.3-2.3h5.4a2.3,2.3,0,0,1,2.3,2.3v5.4Z" transform="translate(-132.2 -146)"/><path class="cls-4" d="M163.63,239H157V229c0-.8.13-1-0.66-1h-5.61c-0.8,0-1.73.21-1.73,1v10h-5.35a1.16,1.16,0,0,0-.87,2L152.33,251a1.57,1.57,0,0,0,2.24,0l10-9.76A1.34,1.34,0,0,0,163.63,239Z" transform="translate(-132.2 -146)"/><path class="cls-4" d="M171.91,260.53v-6.12S172.19,252,170,252H159.51s-3.25,4.41-6,4.37c0,0-1.84.63-6.17-4.37H136.9a1.33,1.33,0,0,0-1.9,1.31v7.29s0.23,2.39,1.81,2.39H170A2.67,2.67,0,0,0,171.91,260.53Zm-9.92-.78a1.36,1.36,0,1,1,1.36-1.36A1.36,1.36,0,0,1,162,259.75Zm5.66,0a1.36,1.36,0,1,1,1.36-1.36A1.36,1.36,0,0,1,167.64,259.75Z" transform="translate(-132.2 -146)"/></svg>