<?xml version="1.0" encoding="utf-8"?>
<!-- Generator: Adobe Illustrator 19.2.1, SVG Export Plug-In . SVG Version: 6.00 Build 0)  -->
<svg version="1.1" id="Layer_1" xmlns="http://www.w3.org/2000/svg" xmlns:xlink="http://www.w3.org/1999/xlink" x="0px" y="0px"
	 viewBox="0 0 38.9 37" style="enable-background:new 0 0 38.9 37;" xml:space="preserve">
<style type="text/css">
	.st0{fill:none;stroke:#FFFFFF;stroke-width:2;stroke-linecap:round;stroke-linejoin:round;}
</style>
<title>ftp</title>
<path class="st0" d="M29.6,12H23V2c0-0.8,0.1-1-0.7-1h-5.6C15.9,1,15,1.2,15,2v10H9.6c-0.6,0-1.2,0.4-1.2,1.1c0,0.3,0.1,0.7,0.4,0.9
	l9.6,10c0.6,0.6,1.6,0.6,2.2,0c0,0,0,0,0,0l10-9.8c0.5-0.5,0.5-1.4-0.1-1.9C30.2,12.1,29.9,12,29.6,12z"/>
<path class="st0" d="M37.9,33.5v-6.1c0,0,0.3-2.4-1.9-2.4H25.5c0,0-3.2,4.4-6,4.4c0,0-1.8,0.6-6.2-4.4H2.9c-0.7-0.3-1.5,0-1.8,0.6
	C1,25.8,1,26.1,1,26.3v7.3c0,0,0.2,2.4,1.8,2.4H36C37.1,35.7,37.9,34.7,37.9,33.5z M28,32.8c-0.8,0-1.4-0.6-1.4-1.4
	c0-0.8,0.6-1.4,1.4-1.4c0.8,0,1.4,0.6,1.4,1.4l0,0C29.4,32.1,28.7,32.7,28,32.8L28,32.8z M33.7,32.8c-0.8,0-1.4-0.6-1.4-1.4
	c0-0.8,0.6-1.4,1.4-1.4c0.8,0,1.4,0.6,1.4,1.4l0,0C35,32.1,34.4,32.8,33.7,32.8C33.6,32.8,33.6,32.8,33.7,32.8L33.7,32.8z"/>
</svg>
